<svg width="122" height="34" viewBox="0 0 122 34" fill="none" xmlns="http://www.w3.org/2000/svg">
<circle cx="17" cy="17" r="16" stroke="white" stroke-width="2"/>
<path d="M22.1396 10.9193L10.3269 15.9966C9.85152 16.233 9.69074 16.7065 10.212 16.9635L13.2425 18.0369L20.5697 12.9895C20.9698 12.6727 21.3794 12.7572 21.027 13.1057L14.7338 19.4567L14.5361 22.1445C14.7192 22.5595 15.0545 22.5614 15.2683 22.3551L17.0094 20.5189L19.9913 23.0077C20.6839 23.4647 21.0608 23.1698 21.2098 22.3321L23.1656 12.0096C23.3687 10.9785 23.0224 10.5242 22.1396 10.9193Z" fill="white"/>
<g clip-path="url(#clip0_573_314)">
<circle cx="61" cy="17" r="16" stroke="white" stroke-width="2"/>
<path d="M66.2269 11.9071C65.2394 11.4221 64.1946 11.0774 63.1202 10.8823C62.9864 11.1363 62.83 11.4778 62.7222 11.7495C61.5639 11.5667 60.4162 11.5667 59.2791 11.7495C59.1713 11.4779 59.0115 11.1363 58.8764 10.8823C57.801 11.0775 56.7553 11.423 55.7673 11.9096C53.8012 15.0281 53.2682 18.0691 53.5346 21.067C54.8387 22.0891 56.1025 22.7101 57.3449 23.1164C57.6537 22.6707 57.9267 22.1988 58.161 21.7056C57.7149 21.5274 57.2848 21.3077 56.8759 21.0492C56.9835 20.9655 57.0886 20.8783 57.191 20.7876C59.6688 22.004 62.361 22.004 64.8092 20.7876C64.9121 20.8777 65.0171 20.9649 65.1242 21.0492C64.7147 21.3084 64.2838 21.5285 63.8368 21.7069C64.0725 22.2021 64.3449 22.6744 64.6529 23.1176C65.8965 22.7114 67.1615 22.0904 68.4655 21.067C68.7782 17.5917 67.9314 14.5786 66.2269 11.907V11.9071ZM58.4986 19.2233C57.7548 19.2233 57.1448 18.4945 57.1448 17.6069C57.1448 16.7194 57.7418 15.9893 58.4986 15.9893C59.2555 15.9893 59.8654 16.7181 59.8524 17.6069C59.8536 18.4945 59.2555 19.2233 58.4986 19.2233ZM63.5016 19.2233C62.7578 19.2233 62.1478 18.4945 62.1478 17.6069C62.1478 16.7194 62.7448 15.9893 63.5016 15.9893C64.2585 15.9893 64.8684 16.7181 64.8554 17.6069C64.8554 18.4945 64.2585 19.2233 63.5016 19.2233Z" fill="white"/>
</g>
<g clip-path="url(#clip1_573_314)">
<circle cx="105" cy="17" r="16" stroke="white" stroke-width="2"/>
<path d="M112.334 12.4234C111.794 12.664 111.215 12.8265 110.606 12.8999C111.234 12.5215 111.704 11.9257 111.929 11.224C111.338 11.577 110.692 11.8254 110.018 11.9586C109.565 11.4716 108.964 11.1488 108.31 11.0403C107.656 10.9318 106.985 11.0438 106.4 11.3587C105.816 11.6737 105.351 12.174 105.078 12.7821C104.805 13.3902 104.739 14.0719 104.891 14.7215C103.694 14.6611 102.524 14.3481 101.455 13.8029C100.387 13.2577 99.4439 12.4924 98.6882 11.5568C98.4298 12.0054 98.2813 12.5255 98.2813 13.0794C98.281 13.578 98.403 14.069 98.6365 14.5088C98.8699 14.9486 99.2077 15.3236 99.6197 15.6005C99.1418 15.5852 98.6746 15.4552 98.2567 15.2215V15.2605C98.2567 15.9598 98.497 16.6377 98.937 17.1789C99.377 17.7202 99.9895 18.0916 100.671 18.2302C100.227 18.3509 99.7626 18.3687 99.3116 18.2822C99.5037 18.8839 99.878 19.4101 100.382 19.7871C100.886 20.1641 101.495 20.373 102.123 20.3846C101.057 21.2268 99.7404 21.6836 98.3853 21.6816C98.1452 21.6816 97.9054 21.6675 97.667 21.6393C99.0425 22.5294 100.644 23.0018 102.279 23C107.815 23 110.841 18.3855 110.841 14.3835C110.841 14.2535 110.838 14.1221 110.832 13.9921C111.42 13.5637 111.929 13.0332 112.332 12.4254L112.334 12.4234Z" fill="white"/>
</g>
<defs>
<clipPath id="clip0_573_314">
<rect width="34" height="34" fill="white" transform="translate(44)"/>
</clipPath>
<clipPath id="clip1_573_314">
<rect width="34" height="34" fill="white" transform="translate(88)"/>
</clipPath>
</defs>
</svg>
